<svg xmlns="http://www.w3.org/2000/svg" xmlns:xlink="http://www.w3.org/1999/xlink" id="Layer_1" x="0" y="0" version="1.1" viewBox="0 0 500 500" style="enable-background:new 0 0 500 500" xml:space="preserve"><style type="text/css">.st0{fill:#ffc24a}.st1{fill:#f4bd62}.st2{fill:#f6820c}.st3{fill:#fde068}.st4{fill:#fcca3f}.st5{fill:#eeab37}</style><g id="XMLID_1_"><path id="XMLID_2_" d="M117.1,362.1l2.2-3.1l104.5-198.3l0.2-2.1L177.9,72c-3.9-7.3-14.7-5.4-16,2.7L117.1,362.1z" class="st0"/><path id="XMLID_3_" d="M257.6,224.1l34.3-35.1l-34.3-65.5c-3.3-6.2-12.4-6.2-15.6,0l-18.3,35v3L257.6,224.1z" class="st1"/><polygon id="XMLID_4_" points="117.1 362.1 118.1 361.1 121.7 359.6 255.5 226.4 257.1 221.8 223.8 158.2" class="st2"/><path id="XMLID_5_" d="M261.9,429.3l121-67.5l-34.6-212.9c-1.1-6.7-9.3-9.3-14-4.5L117.1,362.1l120.4,67.2 C245,433.6,254.3,433.6,261.9,429.3" class="st3"/><path id="XMLID_6_" d="M381.9,361.2L347.6,150c-1.1-6.6-7.9-9.3-12.6-4.6L118.4,361.7l119,66.5 c7.5,4.2,16.7,4.2,24.3,0L381.9,361.2z" class="st4"/><path id="XMLID_7_" d="M261.9,427.3c-7.6,4.2-16.9,4.2-24.5,0L118,361.1l-1,1l120.4,67.2c7.6,4.2,16.9,4.2,24.5,0 l121-67.5l-0.3-1.8L261.9,427.3z" class="st5"/></g></svg>