<svg xmlns="http://www.w3.org/2000/svg" xmlns:xlink="http://www.w3.org/1999/xlink" id="Layer_1" x="0" y="0" version="1.1" viewBox="0 0 500 500" style="enable-background:new 0 0 500 500" xml:space="preserve"><style type="text/css">.st0{fill:url(#SVGID_1_)}.st1{fill:url(#SVGID_2_)}.st2{fill:url(#SVGID_3_)}.st3{fill:url(#SVGID_4_)}.st4{fill:#fff}</style><g id="XMLID_1_"><linearGradient id="SVGID_1_" x1="-.449" x2=".977" y1=".074" y2=".074" gradientTransform="matrix(118.96 0 0 105.7866 124.8679 268.7142)" gradientUnits="userSpaceOnUse"><stop offset="0" style="stop-color:#f97a12"/><stop offset=".26" style="stop-color:#f97a12"/><stop offset=".46" style="stop-color:#b07b58"/><stop offset=".72" style="stop-color:#577bae"/><stop offset=".91" style="stop-color:#1e7ce5"/><stop offset="1" style="stop-color:#087cfa"/></linearGradient><polygon points="159.9 352.1 71.5 282.5 115.4 201 241.4 250" class="st0"/><linearGradient id="SVGID_2_" x1="-.081" x2="1.345" y1="-.023" y2="-.023" gradientTransform="matrix(196.24 108.56 -69.9609 304.5103 216.0522 212.9336)" gradientUnits="userSpaceOnUse"><stop offset="0" style="stop-color:#f97a12"/><stop offset=".07" style="stop-color:#cb7a3e"/><stop offset=".15" style="stop-color:#9e7b6a"/><stop offset=".24" style="stop-color:#757b91"/><stop offset=".33" style="stop-color:#537bb1"/><stop offset=".43" style="stop-color:#387ccc"/><stop offset=".54" style="stop-color:#237ce0"/><stop offset=".66" style="stop-color:#147cef"/><stop offset=".79" style="stop-color:#0b7cf7"/><stop offset="1" style="stop-color:#087cfa"/></linearGradient><polygon points="432.5 165 425.7 376 285.4 432.5 201 377.8 324.1 250 270.5 131.4 319 73.2" class="st1"/><linearGradient id="SVGID_3_" x1="-.201" x2="1.225" y1=".277" y2=".277" gradientTransform="matrix(-54.6 -163.24 118.5682 -75.1711 353.3293 279.1966)" gradientUnits="userSpaceOnUse"><stop offset="0" style="stop-color:#fe315d"/><stop offset=".08" style="stop-color:#cb417e"/><stop offset=".16" style="stop-color:#9e4e9b"/><stop offset=".25" style="stop-color:#755bb4"/><stop offset=".34" style="stop-color:#5365ca"/><stop offset=".44" style="stop-color:#386ddb"/><stop offset=".54" style="stop-color:#2374e9"/><stop offset=".66" style="stop-color:#1478f3"/><stop offset=".79" style="stop-color:#0b7bf8"/><stop offset="1" style="stop-color:#087cfa"/></linearGradient><polygon points="432.5 165 321.3 296.2 270.5 131.4 319 73.2" class="st2"/><linearGradient id="SVGID_4_" x1="-.154" x2="1.272" y1=".061" y2=".061" gradientTransform="matrix(163.84 271.04 -213.2702 208.2203 161.692 182.2034)" gradientUnits="userSpaceOnUse"><stop offset="0" style="stop-color:#fe315d"/><stop offset=".04" style="stop-color:#f63462"/><stop offset=".1" style="stop-color:#df3a71"/><stop offset=".17" style="stop-color:#c24383"/><stop offset=".29" style="stop-color:#ad4a91"/><stop offset=".55" style="stop-color:#755bb4"/><stop offset=".92" style="stop-color:#1d76ed"/><stop offset="1" style="stop-color:#087cfa"/></linearGradient><polygon points="243.2 370.3 97.2 423.4 120.5 341.3 150.8 239.7 67.5 211.8 120.5 67.5 234.6 81.2 347.5 210.1" class="st3"/><rect id="XMLID_2_" width="228.1" height="228.1" x="135.9" y="135.9"/><path id="XMLID_3_" d="M157.6,321.3h85.5v14.3h-85.5V321.3z M218.6,182.7v-17.1h-46.8v17.1H185v59.9h-13.1v17.7h46.8 v-17.7h-13.1v-59.9H218.6z M264.3,261.4c-6.5,0.3-13-1.1-18.8-4c-4.8-2.6-9-6.1-12.5-10.3l13.1-14.8c2.4,2.6,5.1,4.9,8,6.8 c2.8,1.6,5.9,2.4,9.1,2.3c3.5,0.3,6.9-1.2,9.1-4c2.6-3.4,3.9-7.7,3.4-12v-61h21.1V226c0.2,5-0.6,10.1-2.3,14.8 c-1.5,4.8-4.3,9.1-8,12.5C280,258.2,272.3,261,264.3,261.4z" class="st4"/></g></svg>