<svg xmlns="http://www.w3.org/2000/svg" xmlns:xlink="http://www.w3.org/1999/xlink" id="Layer_1" x="0" y="0" version="1.1" viewBox="0 0 500 500" style="enable-background:new 0 0 500 500" xml:space="preserve"><style type="text/css">.st0{fill:url(#SVGID_1_)}.st1{fill:url(#SVGID_2_)}.st2{fill:url(#SVGID_3_)}.st3{fill:url(#SVGID_4_)}.st4{fill:url(#SVGID_5_)}.st5{fill:#fff}</style><g id="XMLID_1_"><linearGradient id="SVGID_1_" x1="-.102" x2="1.324" y1="-.077" y2="-.077" gradientTransform="matrix(152.36 0 0 160.0328 213.4152 220.7171)" gradientUnits="userSpaceOnUse"><stop offset="0" style="stop-color:#21d789"/><stop offset="1" style="stop-color:#07c3f2"/></linearGradient><polygon points="323.6 125.1 430.2 213.5 391.4 291.6 327.6 274 271.7 274" class="st0"/><linearGradient id="SVGID_2_" x1="-.26" x2="1.165" y1="-.059" y2="-.059" gradientTransform="matrix(313.7 -231.58 189.0633 384.245 32.3813 338.117)" gradientUnits="userSpaceOnUse"><stop offset="0" style="stop-color:#fcf84a"/><stop offset=".01" style="stop-color:#fcf84a"/><stop offset=".11" style="stop-color:#a7eb62"/><stop offset=".21" style="stop-color:#5fe077"/><stop offset=".27" style="stop-color:#32da84"/><stop offset=".31" style="stop-color:#21d789"/><stop offset=".58" style="stop-color:#21d789"/><stop offset=".6" style="stop-color:#21d789"/><stop offset=".69" style="stop-color:#20d68c"/><stop offset=".76" style="stop-color:#1ed497"/><stop offset=".83" style="stop-color:#19d1a9"/><stop offset=".9" style="stop-color:#13ccc2"/><stop offset=".97" style="stop-color:#0bc6e1"/><stop offset="1" style="stop-color:#07c3f2"/></linearGradient><polygon points="215.8 182.7 195.3 291.6 193.5 329.3 141.1 351.5 67.5 359.5 89.7 123.4 223.8 67.5 305.9 121.7" class="st1"/><linearGradient id="SVGID_3_" x1="-.48" x2=".946" y1="-.146" y2="-.146" gradientTransform="matrix(52.32 -164.18 104.2056 82.4322 156.4744 405.6144)" gradientUnits="userSpaceOnUse"><stop offset="0" style="stop-color:#21d789"/><stop offset=".16" style="stop-color:#24d788"/><stop offset=".3" style="stop-color:#2fd886"/><stop offset=".44" style="stop-color:#41da82"/><stop offset=".56" style="stop-color:#5adc7d"/><stop offset=".69" style="stop-color:#7ae077"/><stop offset=".81" style="stop-color:#a1e36e"/><stop offset=".93" style="stop-color:#cfe865"/><stop offset="1" style="stop-color:#f1eb5e"/></linearGradient><polygon points="215.8 182.7 226 393.1 192.4 432.5 67.5 359.5 170.2 206.1" class="st2"/><linearGradient id="SVGID_4_" x1="-.05" x2="1.376" y1="-.024" y2="-.024" gradientTransform="matrix(113.86 -153.08 194.1929 89.7545 225.2474 263.2869)" gradientUnits="userSpaceOnUse"><stop offset="0" style="stop-color:#21d789"/><stop offset=".06" style="stop-color:#24d788"/><stop offset=".11" style="stop-color:#2fd886"/><stop offset=".16" style="stop-color:#41da82"/><stop offset=".21" style="stop-color:#5add7d"/><stop offset=".25" style="stop-color:#79e077"/><stop offset=".26" style="stop-color:#7ce076"/><stop offset=".5" style="stop-color:#8ce173"/><stop offset=".92" style="stop-color:#b2e56b"/><stop offset="1" style="stop-color:#b2e56b"/></linearGradient><polygon points="353.8 167.3 227.2 167.3 339 67.5" class="st3"/><linearGradient id="SVGID_5_" x1="-.277" x2="1.149" y1="-.055" y2="-.055" gradientTransform="matrix(-229.42 -2.14 2.0328 -241.5213 399.7113 282.8588)" gradientUnits="userSpaceOnUse"><stop offset="0" style="stop-color:#fcf84a"/><stop offset=".39" style="stop-color:#fcf84a"/><stop offset=".54" style="stop-color:#ecf451"/><stop offset=".83" style="stop-color:#c2e964"/><stop offset=".92" style="stop-color:#b2e56b"/><stop offset="1" style="stop-color:#b2e56b"/></linearGradient><polygon points="432.5 393.7 321.3 431.9 173 390.3 215.8 182.7 232.9 167.3 323.6 158.8 315 249.4 386.9 221.5" class="st4"/><rect id="XMLID_2_" width="228.1" height="228.1" x="135.9" y="135.9"/><path id="XMLID_3_" d="M157.6,321.3h85.5v14.3h-85.5V321.3z M157,165.6h38.8c22.8,0,35.9,13.1,35.9,32.5 c0,21.7-17.1,33.1-38.2,33.1h-16v28.5H157V165.6z M210.6,199.2c0-9.1-6.3-14.3-17.1-14.3h-16v29.1h16.5 C205.3,214.1,210.6,207.2,210.6,199.2z M239.7,213.5c-0.3-13.1,4.8-25.7,14-35c9.3-9.3,21.9-14.3,35-14c17.7,0,28.5,5.7,37.1,14.8 l-13.1,15.4c-7.4-6.8-14.8-10.8-24-10.8c-16,0-27.4,13.1-27.4,29.7c0,16,11.4,29.7,27.4,29.7c10.8,0,17.7-4.6,25.1-10.8l13.1,13.1 c-9.7,10.3-20.5,17.1-38.8,17.1c-13,0-25.4-5.2-34.5-14.4C244.6,238.9,239.6,226.5,239.7,213.5z" class="st5"/></g></svg>